<svg width="37" height="37" viewBox="0 0 37 37" fill="none" xmlns="http://www.w3.org/2000/svg">
<g id="Circle Layer">
<path id="Vector" d="M23.1251 3.0835C17.9186 3.08569 13.4565 6.80604 12.5181 11.9273C16.9996 9.47489 22.6206 11.1198 25.073 15.6013C26.587 18.368 26.587 21.7155 25.073 24.4822C30.9333 23.4087 34.8138 17.7877 33.7403 11.9274C32.8016 6.80294 28.3348 3.08152 23.1251 3.0835Z" fill="#C3E8F1"/>
<path id="Vector_2" d="M10.7916 33.9167C15.0488 33.9167 18.4999 30.4655 18.4999 26.2083C18.4999 21.9511 15.0488 18.5 10.7916 18.5C6.53439 18.5 3.08325 21.9511 3.08325 26.2083C3.08325 30.4655 6.53439 33.9167 10.7916 33.9167Z" fill="#027794"/>
<path id="Vector_3" d="M16.9584 10.7915C12.2048 10.792 8.22545 14.3953 7.75464 19.1255C11.664 17.4458 16.1948 19.2534 17.8744 23.1627C18.7087 25.1044 18.7087 27.3036 17.8744 29.2453C22.9577 28.7398 26.6689 24.2092 26.1634 19.1259C25.693 14.3949 21.7127 10.7911 16.9584 10.7915Z" fill="#52A0B4"/>
</g>
</svg>
