<svg width="393" height="356" viewBox="0 0 393 356" fill="none" xmlns="http://www.w3.org/2000/svg">
<path fill-rule="evenodd" clip-rule="evenodd" d="M13.6687 27.6202C-10.5619 -6.89599 -39.5604 -39.5047 -60.3517 -76.7843C-73.8394 -100.927 -87.0843 -133.186 -69.6852 -158.731C-50.0471 -187.558 -6.74492 -194.278 25.0725 -197.951C57.8543 -201.733 96.9888 -204.914 123.782 -226.772C132.306 -233.735 139.333 -243.124 140.642 -254.366C141.903 -265.15 138.342 -275.935 139.522 -286.914C142.166 -311.57 157.13 -331.884 176.424 -346.618C233.498 -390.207 318.443 -399.899 387.304 -401.038C421.772 -401.604 457.245 -398.632 491.935 -396.502C536.95 -393.738 582.033 -387.807 624.964 -373.511C716.242 -343.127 777.422 -275.739 820.151 -191.885C833.598 -165.491 843.889 -136.933 864.964 -115.722C875.828 -104.769 873.454 -96.9036 862.347 -86.9147C844.982 -71.3046 823.799 -59.3746 804.525 -46.3459C777.112 -27.8173 749.111 -9.01237 724.867 13.1828C708.156 28.4829 696.293 43.2236 692.692 66.1669C690.123 82.5252 690.723 99.1935 689.179 115.653C686.238 146.92 676.17 177.952 658.346 203.888C644.184 224.445 627.324 243.129 609.898 260.943C587.246 284.136 568.086 307.699 550.883 335.226C528.075 371.663 496.028 438.875 442.307 421.088C383.056 401.461 327.52 351.591 289.505 303.271C276.739 287.047 266.259 267.151 249.042 255.187C223.267 237.305 197.115 237.932 166.457 238.006C120.558 238.107 20.6823 248.063 19.6033 179.367C19.1784 152.151 30.9666 126.417 36.6112 100.238C42.9774 70.9187 30.2181 51.1432 13.6687 27.6202Z" stroke="white"/>
</svg>
